<svg id="Layer_1" data-name="Layer 1" xmlns="http://www.w3.org/2000/svg" viewBox="0 0 273.38 183.1"><defs><style>.cls-1{fill:#e5e5e5;}.cls-2{fill:#6c3f98;}</style></defs><title>empty-state</title><path class="cls-1" d="M421.18,570.65H382.23a5.39,5.39,0,0,1,0-10.78h38.95a5.39,5.39,0,1,1,0,10.78Zm-38.95-8.78a3.36,3.36,0,0,0-2.4,1,3.39,3.39,0,0,0,2.4,5.79h38.95a3.39,3.39,0,1,0,0-6.78Z" transform="translate(-184.93 -457.9)"/><path class="cls-1" d="M254.38,641H237.22a5.4,5.4,0,1,1,0-10.79h17.16a5.4,5.4,0,0,1,0,10.79Zm-17.16-8.79a3.4,3.4,0,1,0,0,6.79h17.16a3.4,3.4,0,0,0,0-6.79Z" transform="translate(-184.93 -457.9)"/><path class="cls-1" d="M403.54,504.73H366.39A6.19,6.19,0,0,1,362,494.17a6.12,6.12,0,0,1,4.37-1.81h3a2.87,2.87,0,0,0,2.87-2.87v-.11a2.87,2.87,0,0,0-2.87-2.87H357.1a6.18,6.18,0,0,1-6.17-6.18,6.18,6.18,0,0,1,6.17-6.18h31.34a2.71,2.71,0,0,0,2.7-2.71,2.7,2.7,0,0,0-2.7-2.69H373.21a5.43,5.43,0,0,1-5.42-5.43,5.43,5.43,0,0,1,5.42-5.42h63.07a5.43,5.43,0,0,1,0,10.85H426.06a2.72,2.72,0,0,0-1.91.79,2.7,2.7,0,0,0,1.91,4.61h26.06a6.18,6.18,0,1,1,0,12.36H392.51a2.87,2.87,0,0,0-2.87,2.87v.11a2.87,2.87,0,0,0,2.87,2.87h11a6.19,6.19,0,0,1,0,12.37Zm-37.15-10.37a4.19,4.19,0,0,0,0,8.37h37.15a4.19,4.19,0,0,0,0-8.37h-11a4.88,4.88,0,0,1-4.87-4.87v-.11a4.88,4.88,0,0,1,4.87-4.87h59.61a4.18,4.18,0,1,0,0-8.36H426.06a4.7,4.7,0,1,1,0-9.4h10.22a3.43,3.43,0,0,0,0-6.85H373.21a3.43,3.43,0,0,0,0,6.85h15.23a4.7,4.7,0,1,1,0,9.4H357.1a4.18,4.18,0,0,0-4.17,4.18,4.18,4.18,0,0,0,4.17,4.18h12.3a4.88,4.88,0,0,1,4.87,4.87v.11a4.88,4.88,0,0,1-4.87,4.87Z" transform="translate(-184.93 -457.9)"/><path class="cls-1" d="M241.6,540.68H214.65a3.75,3.75,0,1,1,0-7.5h.84a2.47,2.47,0,0,0,.61-4.86,2.62,2.62,0,0,0-.61-.08H191.3a2.57,2.57,0,0,0-.62.08l-.17,0h-1.83a3.76,3.76,0,0,1-.94-7.39l.17,0h21.93a3,3,0,0,0,.65-.08,2.59,2.59,0,0,0,1.22-.7,2.63,2.63,0,0,0,.78-1.87,2.65,2.65,0,0,0-2.65-2.65H201a3.76,3.76,0,0,1,0-7.51h1.41a2.65,2.65,0,0,0,.64-5.22,2.73,2.73,0,0,0-.64-.07l-10.86,0a3.66,3.66,0,0,1,.91-7.21h44.12a3.66,3.66,0,0,1,.91,7.21l-.17,0H217.83a2.59,2.59,0,0,0-.63.07,2.73,2.73,0,0,0-1.25.7,2.64,2.64,0,0,0,1.88,4.52h27.09a3.76,3.76,0,1,1,0,7.51h-6a2.65,2.65,0,0,0-2.65,2.65,2.65,2.65,0,0,0,2,2.57,3,3,0,0,0,.65.08l9.12,0a3.75,3.75,0,0,1,0,7.26l-.18,0H235.88a2.62,2.62,0,0,0-.61.08,2.49,2.49,0,0,0-1.13.65,2.47,2.47,0,0,0,1.74,4.21h5.72a3.75,3.75,0,0,1,3.75,3.75,3.66,3.66,0,0,1-.74,2.22,3,3,0,0,1-.36.43A3.72,3.72,0,0,1,241.6,540.68Zm-26.95-6.11a2.34,2.34,0,0,0-2.36,2.36,2.28,2.28,0,0,0,.45,1.38,2.38,2.38,0,0,0,1.91,1H241.6a2.34,2.34,0,0,0,1.67-.69,1.73,1.73,0,0,0,.21-.25,2.33,2.33,0,0,0,.48-1.41,2.36,2.36,0,0,0-2.36-2.36h-5.72a3.86,3.86,0,0,1-1-7.6,4,4,0,0,1,1-.12h11.85a2.28,2.28,0,0,0,1-.59,2.32,2.32,0,0,0,.69-1.67,2.36,2.36,0,0,0-1.68-2.26h-8.85a4.19,4.19,0,0,1-1-.12,4,4,0,0,1,1-8h6a2.35,2.35,0,0,0,1.67-.7,2.3,2.3,0,0,0,.69-1.66,2.36,2.36,0,0,0-2.36-2.36H217.83a4.06,4.06,0,0,1-4.05-4,4,4,0,0,1,1.19-2.86,4.11,4.11,0,0,1,1.89-1.07,3.85,3.85,0,0,1,1-.12h19.38a2.18,2.18,0,0,0,1-.56,2.27,2.27,0,0,0-1.61-3.87H192.44a2.23,2.23,0,0,0-1.6.66,2.25,2.25,0,0,0,1,3.77h10.59a3.85,3.85,0,0,1,1,.12,4,4,0,0,1,1.89,6.78,4,4,0,0,1-2.86,1.19H201a2.3,2.3,0,0,0-1.66.69,2.33,2.33,0,0,0-.7,1.67,2.36,2.36,0,0,0,2.36,2.36h8.86a4,4,0,0,1,1,8,4.19,4.19,0,0,1-1,.12H188a2.45,2.45,0,0,0-1,.59,2.4,2.4,0,0,0-.69,1.67,2.36,2.36,0,0,0,2.36,2.36h1.74a4.32,4.32,0,0,1,.88-.1h24.19a4,4,0,0,1,1,.12,3.86,3.86,0,0,1-1,7.6Z" transform="translate(-184.93 -457.9)"/><path class="cls-1" d="M448,570.8h-8.21a5.54,5.54,0,1,1,0-11.08H448a5.54,5.54,0,1,1,0,11.08Zm-8.21-9.08a3.55,3.55,0,0,0-3.54,3.54,3.54,3.54,0,0,0,3.54,3.54H448a3.53,3.53,0,0,0,3.54-3.54,3.55,3.55,0,0,0-3.54-3.54Z" transform="translate(-184.93 -457.9)"/><path class="cls-2" d="M325.41,591.61H285.08a3.4,3.4,0,0,1-3.4-3.4V516.72a3.4,3.4,0,0,1,3.4-3.4h40.33a3.41,3.41,0,0,1,3.4,3.4v71.49A3.41,3.41,0,0,1,325.41,591.61Zm-40.33-76.29a1.4,1.4,0,0,0-1.4,1.4v71.49a1.4,1.4,0,0,0,1.4,1.4h40.33a1.4,1.4,0,0,0,1.4-1.4V516.72a1.4,1.4,0,0,0-1.4-1.4Z" transform="translate(-184.93 -457.9)"/><path class="cls-2" d="M334.41,569.34" transform="translate(-184.93 -457.9)"/><path class="cls-2" d="M334.41,575.37" transform="translate(-184.93 -457.9)"/><path class="cls-2" d="M336,563.18a1,1,0,0,1-1-1V505.8A4.77,4.77,0,0,0,330.2,501h-7a1,1,0,0,1,0-2h7A6.77,6.77,0,0,1,337,505.8v56.38A1,1,0,0,1,336,563.18Z" transform="translate(-184.93 -457.9)"/><path class="cls-2" d="M336,571.94a1,1,0,0,1-1-1v-4.49a1,1,0,0,1,2,0v4.49A1,1,0,0,1,336,571.94Z" transform="translate(-184.93 -457.9)"/><path class="cls-2" d="M330.2,613.1H280.29a6.76,6.76,0,0,1-6.76-6.76V505.8a6.77,6.77,0,0,1,6.76-6.76h27a1,1,0,0,1,0,2h-27a4.76,4.76,0,0,0-4.76,4.76V606.34a4.76,4.76,0,0,0,4.76,4.76H330.2a4.76,4.76,0,0,0,4.76-4.76V576.19a1,1,0,0,1,2,0v30.15A6.76,6.76,0,0,1,330.2,613.1Z" transform="translate(-184.93 -457.9)"/><path class="cls-2" d="M290.71,534.8a1,1,0,0,1-.81-1.57,9.13,9.13,0,0,1,6.7-3.49c4.33-.26,6.08,1.66,6.27,1.88a1,1,0,0,1-1.53,1.3s-1.3-1.38-4.62-1.18a7.13,7.13,0,0,0-5.19,2.64A1,1,0,0,1,290.71,534.8Z" transform="translate(-184.93 -457.9)"/><path class="cls-2" d="M322.48,536.34a1,1,0,0,1-.82-.42h0a7.11,7.11,0,0,0-5.19-2.64c-3.33-.2-4.58,1.13-4.63,1.19a1,1,0,0,1-1.41.09,1,1,0,0,1-.11-1.39c.19-.22,1.93-2.15,6.27-1.89a9.13,9.13,0,0,1,6.7,3.49,1,1,0,0,1-.24,1.39A.92.92,0,0,1,322.48,536.34Z" transform="translate(-184.93 -457.9)"/><path class="cls-2" d="M296.46,549.56a1,1,0,0,1-.25-2c.45-.12,11.14-2.88,16.36-1.58a1,1,0,0,1,.72,1.22,1,1,0,0,1-1.21.72c-4.72-1.18-15.26,1.54-15.37,1.57A1.07,1.07,0,0,1,296.46,549.56Z" transform="translate(-184.93 -457.9)"/><path class="cls-2" d="M313.42,549.56a1,1,0,0,1-.63-.22,3.59,3.59,0,0,1-.62-5.17,1,1,0,0,1,1.57,1.25,1.58,1.58,0,0,0,.32,2.37,1,1,0,0,1-.64,1.77Z" transform="translate(-184.93 -457.9)"/><path class="cls-2" d="M305.24,607.56a6.27,6.27,0,1,1,3.51-11.47,1,1,0,1,1-1.12,1.66,4.23,4.23,0,0,0-2.39-.73,4.27,4.27,0,1,0,4.27,4.27,4.12,4.12,0,0,0-.14-1.11,1,1,0,0,1,1.93-.52,6.39,6.39,0,0,1,.21,1.63A6.27,6.27,0,0,1,305.24,607.56Z" transform="translate(-184.93 -457.9)"/></svg>